<svg width="120" height="120" viewBox="0 0 120 120" fill="none" xmlns="http://www.w3.org/2000/svg">
  <defs>
    <linearGradient id="gradient1" x1="0%" y1="0%" x2="100%" y2="100%">
      <stop offset="0%" style="stop-color:#00f5ff;stop-opacity:1" />
      <stop offset="25%" style="stop-color:#00d4ff;stop-opacity:1" />
      <stop offset="50%" style="stop-color:#3366ff;stop-opacity:1" />
      <stop offset="75%" style="stop-color:#6633ff;stop-opacity:1" />
      <stop offset="100%" style="stop-color:#9900ff;stop-opacity:1" />
    </linearGradient>
    <linearGradient id="gradient2" x1="0%" y1="0%" x2="100%" y2="100%">
      <stop offset="0%" style="stop-color:#00ffcc;stop-opacity:1" />
      <stop offset="25%" style="stop-color:#00ff99;stop-opacity:1" />
      <stop offset="50%" style="stop-color:#66ff66;stop-opacity:1" />
      <stop offset="75%" style="stop-color:#99ff33;stop-opacity:1" />
      <stop offset="100%" style="stop-color:#ccff00;stop-opacity:1" />
    </linearGradient>
    <linearGradient id="gradient3" x1="0%" y1="0%" x2="100%" y2="100%">
      <stop offset="0%" style="stop-color:#ff6600;stop-opacity:1" />
      <stop offset="25%" style="stop-color:#ff9900;stop-opacity:1" />
      <stop offset="50%" style="stop-color:#ffcc00;stop-opacity:1" />
      <stop offset="75%" style="stop-color:#ffff00;stop-opacity:1" />
      <stop offset="100%" style="stop-color:#ccff00;stop-opacity:1" />
    </linearGradient>
    <linearGradient id="gradient4" x1="0%" y1="0%" x2="100%" y2="100%">
      <stop offset="0%" style="stop-color:#ff0066;stop-opacity:1" />
      <stop offset="25%" style="stop-color:#ff3399;stop-opacity:1" />
      <stop offset="50%" style="stop-color:#ff66cc;stop-opacity:1" />
      <stop offset="75%" style="stop-color:#ff99ff;stop-opacity:1" />
      <stop offset="100%" style="stop-color:#cc66ff;stop-opacity:1" />
    </linearGradient>
  </defs>
  
  <!-- Main 3D geometric shape -->
  <!-- Left face -->
  <path d="M20 30 L20 90 L60 110 L60 50 Z" fill="url(#gradient1)" opacity="0.9"/>
  
  <!-- Top face -->
  <path d="M20 30 L60 10 L100 30 L60 50 Z" fill="url(#gradient2)" opacity="0.9"/>
  
  <!-- Right face -->
  <path d="M60 50 L100 30 L100 90 L60 110 Z" fill="url(#gradient3)" opacity="0.9"/>
  
  <!-- Inner left face -->
  <path d="M35 40 L35 85 L55 95 L55 50 Z" fill="url(#gradient4)" opacity="0.8"/>
  
  <!-- Inner top face -->
  <path d="M35 40 L55 25 L85 40 L55 50 Z" fill="url(#gradient1)" opacity="0.8"/>
  
  <!-- Inner right face -->
  <path d="M55 50 L85 40 L85 85 L55 95 Z" fill="url(#gradient2)" opacity="0.8"/>
  
  <!-- Additional geometric elements for depth -->
  <path d="M20 30 L35 40 L55 25 L60 10 Z" fill="url(#gradient3)" opacity="0.6"/>
  <path d="M60 10 L100 30 L85 40 L55 25 Z" fill="url(#gradient4)" opacity="0.6"/>
  <path d="M100 30 L100 90 L85 85 L85 40 Z" fill="url(#gradient1)" opacity="0.6"/>
  <path d="M85 85 L100 90 L60 110 L55 95 Z" fill="url(#gradient2)" opacity="0.6"/>
  <path d="M60 110 L20 90 L35 85 L55 95 Z" fill="url(#gradient3)" opacity="0.6"/>
  <path d="M20 90 L20 30 L35 40 L35 85 Z" fill="url(#gradient4)" opacity="0.6"/>
</svg> 